<?xml version="1.0" standalone="no"?>
<!DOCTYPE svg PUBLIC "-//W3C//DTD SVG 20010904//EN"
 "http://www.w3.org/TR/2001/REC-SVG-20010904/DTD/svg10.dtd">
<svg version="1.0" xmlns="http://www.w3.org/2000/svg"
 width="700.000000pt" height="700.000000pt" viewBox="0 0 700.000000 700.000000"
 preserveAspectRatio="xMidYMid meet">
<metadata>
Created by potrace 1.11, written by Peter Selinger 2001-2013
</metadata>
<g transform="translate(0.000000,700.000000) scale(0.100000,-0.100000)"
fill="#000000" stroke="none">
<path d="M2925 6318 c-313 -181 -658 -381 -765 -443 -107 -61 -442 -255 -745
-430 -302 -174 -563 -324 -580 -333 -16 -9 -38 -23 -47 -31 -17 -13 -18 -107
-17 -1580 0 -1425 1 -1567 16 -1583 9 -10 19 -18 23 -18 4 0 59 -30 121 -67
63 -36 134 -77 159 -91 25 -13 50 -27 55 -32 6 -4 30 -19 55 -32 25 -14 86
-49 135 -78 50 -29 108 -63 131 -76 23 -13 180 -104 350 -202 170 -98 329
-190 354 -204 25 -14 158 -91 295 -170 138 -80 266 -154 285 -165 30 -17 203
-117 336 -194 33 -20 194 -113 375 -217 l40 -23 37 22 c20 12 51 30 69 40 37
21 414 238 460 265 56 33 256 148 308 177 27 16 60 35 72 43 12 7 39 23 60 35
41 23 264 152 723 417 157 91 301 174 320 184 19 11 91 53 160 93 69 40 144
83 166 96 23 13 112 64 197 114 l156 89 0 1573 0 1573 -37 24 c-32 20 -512
298 -612 354 -19 11 -192 111 -385 222 -313 181 -576 333 -1443 834 -139 80
-254 146 -255 145 -1 0 -258 -149 -572 -331z m983 -803 c75 -110 181 -267 237
-350 176 -260 431 -640 437 -650 5 -8 -1437 -12 -2116 -6 -55 1 -58 2 -44 19
8 9 91 130 183 267 93 138 210 311 260 385 50 74 154 227 230 340 76 113 198
294 272 402 l134 196 136 -201 c75 -111 197 -292 271 -402z m-1008 363 c0 -2
-67 -102 -150 -223 -82 -121 -214 -317 -294 -435 -332 -493 -429 -635 -436
-644 -5 -5 -161 79 -354 190 -268 154 -343 201 -333 210 6 6 89 56 182 110 94
53 211 121 260 149 50 29 133 77 185 107 52 30 185 107 295 171 110 63 297
171 415 240 194 113 230 133 230 125z m1438 -130 c113 -66 224 -130 246 -142
23 -13 138 -79 256 -148 118 -68 353 -204 522 -302 169 -98 310 -181 312 -185
3 -4 -92 -63 -211 -132 -119 -68 -241 -139 -272 -156 -159 -92 -203 -115 -210
-107 -11 12 -243 355 -616 909 -103 154 -202 300 -220 325 -46 65 -49 71 -29
63 9 -3 109 -60 222 -125z m-2969 -1227 c113 -65 222 -128 241 -140 19 -11 42
-24 50 -28 8 -4 43 -24 78 -45 34 -21 67 -38 72 -38 25 0 17 -33 -31 -131 -28
-57 -84 -171 -124 -254 -77 -159 -189 -390 -352 -725 -55 -113 -115 -235 -133
-272 -17 -38 -33 -68 -34 -68 -1 0 -2 412 -2 915 0 783 2 915 14 910 8 -3 107
-59 221 -124z m4496 -785 c0 -729 -2 -910 -12 -897 -7 9 -13 19 -13 22 0 4
-59 128 -131 275 -72 148 -164 337 -204 419 -40 83 -125 257 -189 388 -151
311 -149 307 -145 312 7 7 684 395 689 395 3 0 5 -411 5 -914z m-1259 398 c-3
-7 -90 -160 -194 -340 -104 -181 -200 -347 -212 -369 -12 -22 -26 -44 -30 -50
-4 -5 -19 -30 -32 -55 -14 -25 -116 -202 -228 -395 -111 -192 -250 -432 -307
-533 -99 -170 -107 -180 -118 -159 -6 13 -47 84 -90 158 -43 74 -86 148 -95
164 -9 17 -75 129 -145 250 -70 121 -141 245 -158 275 -17 30 -48 83 -69 118
-21 34 -38 64 -38 66 0 2 -43 77 -95 166 -52 89 -95 164 -95 165 0 2 -34 61
-75 130 -41 70 -75 128 -75 130 0 2 -27 49 -60 104 -33 56 -60 106 -60 111 0
6 -3 10 -7 10 -7 0 -33 47 -33 60 0 3 500 5 1110 5 838 0 1109 -2 1106 -11z
m-2291 -594 c18 -30 42 -71 52 -90 11 -19 104 -181 208 -360 103 -179 195
-338 205 -355 9 -16 70 -122 135 -235 66 -113 128 -221 139 -241 12 -20 41
-72 66 -115 25 -43 46 -81 48 -85 3 -7 -46 -5 -313 16 -27 2 -93 7 -145 10
-52 3 -120 8 -150 10 -30 2 -91 7 -135 10 -87 6 -177 13 -270 20 -33 2 -98 7
-145 10 -47 3 -107 8 -135 10 -27 2 -95 7 -150 11 -55 3 -116 7 -135 9 -19 2
-84 7 -145 11 -60 3 -123 8 -140 10 -16 1 -40 3 -52 3 -21 1 -19 6 29 104 28
56 81 165 118 242 37 77 110 228 163 335 52 107 147 303 211 435 65 132 160
329 213 437 l96 197 100 -172 c54 -95 114 -197 132 -227z m2918 -250 c79 -162
180 -371 226 -465 45 -93 133 -273 195 -400 62 -126 112 -231 111 -233 -1 -1
-35 -4 -75 -7 -40 -2 -98 -7 -129 -10 -31 -2 -96 -7 -146 -10 -49 -3 -115 -7
-145 -10 -30 -2 -91 -7 -135 -10 -87 -5 -202 -14 -280 -20 -27 -2 -95 -7 -150
-10 -55 -3 -118 -7 -140 -10 -22 -2 -85 -7 -140 -10 -55 -4 -116 -8 -135 -10
-19 -2 -82 -6 -140 -10 -96 -6 -136 -9 -272 -19 -27 -2 -48 -3 -48 -1 0 2 115
203 256 447 141 244 282 487 313 541 31 54 64 112 74 128 24 42 230 400 346
601 l96 168 87 -178 c48 -97 152 -310 231 -472z m-3398 -1504 c50 -4 117 -9
150 -11 85 -7 177 -14 270 -20 44 -3 107 -7 140 -10 33 -2 103 -7 155 -11 52
-3 111 -8 130 -9 19 -2 82 -7 140 -10 58 -3 119 -8 135 -10 17 -2 82 -7 145
-11 63 -4 126 -8 140 -9 14 -2 37 -3 53 -4 l27 -1 0 -404 0 -404 -77 45 c-43
24 -85 48 -93 53 -86 52 -151 90 -156 90 -3 0 -30 16 -60 35 -30 19 -56 35
-58 35 -3 0 -50 27 -106 60 -56 33 -103 60 -105 60 -2 0 -50 28 -107 61 -103
62 -134 80 -218 127 -25 14 -105 61 -179 104 -74 43 -136 78 -138 78 -3 0 -17
8 -31 18 -15 11 -54 34 -87 51 -76 41 -175 103 -175 108 0 2 3 2 8 0 4 -3 48
-8 97 -11z m3405 -14 c-19 -10 -107 -60 -195 -111 -88 -52 -218 -127 -290
-168 -71 -41 -137 -79 -145 -84 -8 -5 -221 -128 -472 -273 l-458 -264 0 404 0
404 28 1 c15 0 44 2 66 4 21 2 77 6 125 10 47 3 106 8 131 10 25 2 88 6 140 9
52 4 118 9 145 11 28 2 93 6 145 10 52 3 118 7 145 10 60 6 191 16 260 20 133
8 270 17 272 19 1 1 32 2 70 4 l68 3 -35 -19z"/>
</g>
</svg>
