<?xml version="1.0" encoding="utf-8"?>
<!-- Generator: Adobe Illustrator 22.1.0, SVG Export Plug-In . SVG Version: 6.00 Build 0)  -->
<svg version="1.1"
	 id="Layer_1" xmlns:cc="http://creativecommons.org/ns#" xmlns:dc="http://purl.org/dc/elements/1.1/" xmlns:inkscape="http://www.inkscape.org/namespaces/inkscape" xmlns:rdf="http://www.w3.org/1999/02/22-rdf-syntax-ns#" xmlns:sodipodi="http://sodipodi.sourceforge.net/DTD/sodipodi-0.dtd" xmlns:svg="http://www.w3.org/2000/svg"
	 xmlns="http://www.w3.org/2000/svg" xmlns:xlink="http://www.w3.org/1999/xlink" x="0px" y="0px" viewBox="0 0 300 300"
	 style="enable-background:new 0 0 300 300;" xml:space="preserve">
<style type="text/css">
	.st0{fill:#ED9914;}
</style>
<g transform="translate(0,-952.36216)">
	<path class="st0" d="M150,967.4l-116.9,67.5v135l3.9,2.2l113,65.3l116.9-67.5v-135L150,967.4L150,967.4z M150,990.1l46.7,69.1
		h-93.4L150,990.1L150,990.1z M124.7,999.9l-38.4,56.8l-30-17.3L124.7,999.9z M175.3,999.9l68.4,39.5l-30,17.3L175.3,999.9
		L175.3,999.9z M48.6,1052.8l30,17.3l-30,61.7V1052.8z M251.4,1052.8v79l-30-61.7L251.4,1052.8L251.4,1052.8z M102.1,1074.7h95.7
		l-47.9,82.9L102.1,1074.7L102.1,1074.7z M89.3,1083.5l46.7,80.9l-83.2-5.9L89.3,1083.5L89.3,1083.5z M210.7,1083.5l36.5,75
		l-83.2,5.9L210.7,1083.5L210.7,1083.5z M73.9,1175.5l68.4,4.9v34.6L73.9,1175.5z M226.1,1175.5l-68.4,39.5v-34.6L226.1,1175.5z"/>
</g>
</svg>
